<?xml version="1.0" encoding="iso-8859-1"?>
<!-- Generator: Adobe Illustrator 19.0.0, SVG Export Plug-In . SVG Version: 6.00 Build 0)  -->
<svg version="1.1" id="Capa_1" xmlns="http://www.w3.org/2000/svg" xmlns:xlink="http://www.w3.org/1999/xlink" x="0px" y="0px"
	 viewBox="0 0 480.187 480.187" style="enable-background:new 0 0 480.187 480.187;" xml:space="preserve">
<path style="fill:#DD1C4B;" d="M247.42,199.48c-62.008-62-130-94.536-151.872-72.672c-2.4,2.514-4.166,5.563-5.152,8.896
	l-0.352-0.352l-20.888,85.6l-20.8,85.344L23.7,407.352l-15.608,64l92.408-34.968l117.536-44.472l93.768-35.48l-0.112-0.112
	c3.139-1.001,6.011-2.699,8.4-4.968C341.964,329.48,309.428,261.488,247.42,199.48z"/>
<ellipse transform="matrix(-0.7071 -0.7071 0.7071 -0.7071 185.7411 555.0352)" style="fill:#D1E3EE;" cx="207.822" cy="239.049" rx="158.777" ry="56"/>
<path style="fill:#B21D48;" d="M303.292,359.2c-11.196,0.196-22.304-2.008-32.576-6.464l-76.64,29L76.5,426.168l-63.048,23.856
	L8.092,472l92.408-34.968l117.536-44.472L304.092,360L303.292,359.2z"/>
<g>
	<path style="fill:#FFBF41;" d="M400.092,296c-0.958-0.003-1.908-0.174-2.808-0.504c-40.613-15.215-84.514-19.481-127.296-12.368
		l-28.576,4.76c-4.374,0.624-8.426-2.416-9.05-6.79c-0.603-4.226,2.218-8.181,6.41-8.986l28.584-4.8
		c45.554-7.569,92.297-3.03,135.544,13.16c4.158,1.494,6.317,6.076,4.823,10.234C406.569,293.918,403.505,296.044,400.092,296z"/>
	<path style="fill:#FFBF41;" d="M256.092,248c-4.418-0.026-7.979-3.629-7.953-8.047c0.018-3.05,1.768-5.824,4.513-7.153l168-80
		c3.99-1.9,8.764-0.206,10.664,3.784s0.206,8.764-3.784,10.664l0,0l-168,80C258.456,247.751,257.28,248.008,256.092,248z"/>
	<path style="fill:#FFBF41;" d="M162.54,232c-1.055,0.002-2.1-0.207-3.072-0.616c-4.078-1.701-6.005-6.385-4.304-10.463
		c0,0,0-0.001,0-0.001l11.632-27.912c17.897-42.765,22.07-90.033,11.944-135.272c-1.038-4.295,1.603-8.617,5.897-9.655
		c4.295-1.038,8.617,1.603,9.655,5.897c0.023,0.095,0.044,0.19,0.064,0.286c10.848,48.461,6.375,99.095-12.8,144.904l-11.64,27.912
		C168.674,230.057,165.766,231.997,162.54,232L162.54,232z"/>
</g>
<circle style="fill:#D5557E;" cx="440.092" cy="312" r="16"/>
<circle style="fill:#DD95C1;" cx="248.092" cy="88" r="16"/>
<path style="fill:#7FCCCB;" d="M176.092,32c-8.837,0-16-7.163-16-16s7.163-16,16-16s16,7.163,16,16S184.929,32,176.092,32z"/>
<g>
	<path style="fill:#2276BB;" d="M400.092,64c-4.418,0-8-3.582-8-8v-8c0-4.418,3.582-8,8-8s8,3.582,8,8v8
		C408.092,60.418,404.51,64,400.092,64z"/>
	<path style="fill:#2276BB;" d="M400.092,24c-4.418,0-8-3.582-8-8V8c0-4.418,3.582-8,8-8s8,3.582,8,8v8
		C408.092,20.418,404.51,24,400.092,24z"/>
	<path style="fill:#2276BB;" d="M424.092,40h-8c-4.418,0-8-3.582-8-8s3.582-8,8-8h8c4.418,0,8,3.582,8,8S428.51,40,424.092,40z"/>
	<path style="fill:#2276BB;" d="M384.092,40h-8c-4.418,0-8-3.582-8-8s3.582-8,8-8h8c4.418,0,8,3.582,8,8S388.51,40,384.092,40z"/>
</g>
<path style="fill:#FFFFFF;" d="M71.596,232c-0.896-3.424-1.696-6.88-2.44-10.4l-20.8,85.344l1.6,19.512
	c3.487,41.599,21.357,80.683,50.536,110.536l117.544-44.432c-0.64-0.2-1.304-0.344-1.944-0.56
	C144.817,365.275,90.944,305.621,71.596,232z"/>
<path style="fill:#F6F6E7;" d="M218.036,392.56c-0.64-0.2-1.304-0.344-1.944-0.56c-7.7-2.915-15.242-6.234-22.592-9.944
	L87.628,422.112c4.014,5.206,8.311,10.187,12.872,14.92L218.036,392.56z"/>
<path style="fill:#C9DA53;" d="M344.092,95.832V136h-40.168V95.832H344.092z"/>
<path style="fill:#FFBF41;" d="M200.092,240c-4.418-0.001-7.999-3.584-7.998-8.002c0.001-2.266,0.962-4.425,2.646-5.942l80-72
	c3.341-2.891,8.393-2.526,11.284,0.815c2.811,3.248,2.555,8.136-0.58,11.073l-80,72C203.975,239.267,202.069,239.999,200.092,240
	L200.092,240z"/>
<g>
	<path style="fill:#FFDB43;" d="M432.092,208c-4.418,0-8-3.582-8-8v-8c0-4.418,3.582-8,8-8s8,3.582,8,8v8
		C440.092,204.418,436.51,208,432.092,208z"/>
	<path style="fill:#FFDB43;" d="M460.38,196.28c-2.123,0.006-4.16-0.838-5.656-2.344l-5.656-5.656
		c-3.069-3.178-2.982-8.243,0.196-11.312c3.1-2.994,8.015-2.994,11.116,0l5.656,5.656c3.124,3.125,3.123,8.19-0.002,11.314
		C464.535,195.437,462.501,196.28,460.38,196.28L460.38,196.28z"/>
	<path style="fill:#FFDB43;" d="M472.092,168h-8c-4.418,0-8-3.582-8-8s3.582-8,8-8h8c4.418,0,8,3.582,8,8S476.51,168,472.092,168z"
		/>
	<path style="fill:#FFDB43;" d="M454.724,145.376c-4.418-0.001-7.999-3.583-7.998-8.002c0-2.121,0.843-4.155,2.342-5.654
		l5.656-5.656c3.178-3.07,8.242-2.982,11.312,0.196c2.994,3.1,2.994,8.015,0,11.116l-5.656,5.656
		C458.88,144.532,456.846,145.376,454.724,145.376L454.724,145.376z"/>
	<path style="fill:#FFDB43;" d="M432.092,136c-4.418,0-8-3.582-8-8v-8c0-4.418,3.582-8,8-8s8,3.582,8,8v8
		C440.092,132.418,436.51,136,432.092,136z"/>
	<path style="fill:#FFDB43;" d="M409.46,145.376c-2.122,0-4.156-0.844-5.656-2.344l-5.656-5.656
		c-3.069-3.178-2.982-8.243,0.196-11.312c3.1-2.994,8.015-2.994,11.116,0l5.656,5.656c3.124,3.125,3.123,8.19-0.002,11.314
		C413.615,144.533,411.581,145.376,409.46,145.376L409.46,145.376z"/>
	<path style="fill:#FFDB43;" d="M48.092,8l12.36,25.048l27.64,4.016l-20,19.496l4.72,27.528l-24.72-13l-24.72,13l4.72-27.528
		l-20-19.496l27.64-4.016L48.092,8z"/>
</g>
<path style="fill:#2BB3CE;" d="M477.564,433.328c-3.805-13.485-12.566-25.032-24.528-32.328l-3.296-4.944
	c-18.481-27.637-47.542-46.429-80.328-51.944c-4.374-0.624-8.426,2.416-9.05,6.79c-0.603,4.226,2.218,8.181,6.41,8.986
	c23.648,4.014,45.199,16.028,61.048,34.032c-13.325,2.397-24.979,10.4-32,21.976c-8.616,15.431-3.091,34.924,12.34,43.54
	s34.924,3.091,43.54-12.34c3.291-6.353,5.068-13.382,5.192-20.536c8.512,12.363,9.193,28.508,1.752,41.544
	c-2.254,3.8-1.001,8.708,2.799,10.962c3.8,2.254,8.708,1.001,10.962-2.799c0.072-0.122,0.141-0.245,0.207-0.371
	C479.88,462.937,481.663,447.609,477.564,433.328L477.564,433.328z M437.748,439.288c-4.27,7.737-14.003,10.547-21.739,6.277
	c-7.737-4.27-10.547-14.003-6.277-21.739c0.024-0.043,0.048-0.087,0.072-0.13c4.721-7.73,12.684-12.912,21.664-14.096
	c1.391-0.038,2.768,0.282,4,0.928C442.22,414.296,442.58,430.632,437.748,439.288z"/>
<path d="M308.26,366.656c6.405-0.982,12.341-3.945,16.976-8.472c7.936-7.928,14.76-24.272,2.192-57.048
	c-1.498-4.157-6.082-6.312-10.238-4.814c-4.157,1.498-6.312,6.082-4.814,10.238c0.037,0.102,0.076,0.203,0.116,0.304
	c7.296,19.04,7.824,33.6,1.432,40c-7.744,7.728-27.024,5.312-51.6-6.448c-32.905-17.08-62.812-39.398-88.552-66.08
	c-62.672-62.672-88.528-124.168-72.536-140.16c5.107-4.028,11.741-5.576,18.104-4.224c4.385,0.54,8.378-2.578,8.917-6.963
	c0.54-4.385-2.578-8.378-6.963-8.917c-0.136-0.017-0.273-0.03-0.41-0.04c-11.123-1.968-22.535,1.275-30.96,8.8
	c-29.304,29.344,15.496,105.784,72.568,162.824c27.018,27.962,58.414,51.332,92.952,69.192c6.258,2.995,12.706,5.574,19.304,7.72
	l-56.88,21.512C149.56,358.032,97.994,300.658,79.356,229.968c-1.92-7.32-3.488-14.8-4.664-22.24
	c-0.56-4.383-4.567-7.482-8.949-6.922c-4.383,0.56-7.482,4.567-6.922,8.949c0.019,0.151,0.043,0.302,0.071,0.452
	c1.256,8,2.936,16,4.992,23.824c18.414,69.796,66.926,127.781,132.376,158.224l-93.56,35.4c-0.426-0.717-0.967-1.361-1.6-1.904
	c-23.776-19.087-38.693-47.083-41.272-77.464l-3.736-44.952c-0.294-4.355-4.063-7.648-8.418-7.354
	c-0.074,0.005-0.148,0.011-0.222,0.018c-4.403,0.365-7.676,4.229-7.312,8.632l3.744,44.968c2.82,32.471,17.966,62.629,42.328,84.28
	l-66.728,25.264l12-49.248c1.047-4.295-1.585-8.625-5.88-9.672s-8.625,1.585-9.672,5.88l-15.608,64
	c-1.047,4.292,1.584,8.621,5.876,9.668C6.82,479.923,7.455,480,8.092,480c0.967-0.001,1.926-0.174,2.832-0.512l296-112
	C307.398,367.259,307.846,366.98,308.26,366.656z"/>
<path d="M267.372,267.344l-28.576,4.8c-4.376,0.608-7.431,4.648-6.823,9.025s4.648,7.431,9.025,6.823
	c0.144-0.02,0.288-0.044,0.43-0.072l28.576-4.76c42.785-7.113,86.688-2.847,127.304,12.368c0.894,0.317,1.836,0.477,2.784,0.472
	c4.418,0.007,8.006-3.568,8.013-7.987c0.006-3.345-2.071-6.341-5.205-7.509C359.658,264.317,312.921,259.779,267.372,267.344
	L267.372,267.344z"/>
<path d="M248.892,243.44c1.899,3.986,6.668,5.679,10.656,3.784l168-80c3.969-1.941,5.612-6.733,3.671-10.702
	c-1.911-3.907-6.595-5.572-10.543-3.746l-168,80c-3.989,1.899-5.684,6.672-3.785,10.662
	C248.891,243.439,248.892,243.439,248.892,243.44z"/>
<path d="M159.492,231.384c0.973,0.409,2.017,0.618,3.072,0.616c3.229,0,6.141-1.94,7.384-4.92l11.632-27.88
	c19.179-45.808,23.652-96.443,12.8-144.904c-0.88-4.33-5.103-7.127-9.433-6.247c-4.33,0.88-7.127,5.103-6.247,9.433
	c0.019,0.096,0.041,0.191,0.064,0.286c10.133,45.238,5.962,92.507-11.936,135.272l-11.64,27.912
	C153.508,225.021,155.432,229.683,159.492,231.384L159.492,231.384z"/>
<path d="M416.092,312c0,13.255,10.745,24,24,24s24-10.745,24-24s-10.745-24-24-24S416.092,298.745,416.092,312z M448.092,312
	c0,4.418-3.582,8-8,8s-8-3.582-8-8s3.582-8,8-8S448.092,307.582,448.092,312z"/>
<path d="M272.092,88c0-13.255-10.745-24-24-24c-13.255,0-24,10.745-24,24s10.745,24,24,24C261.347,112,272.092,101.255,272.092,88z
	 M240.092,88c0-4.418,3.582-8,8-8s8,3.582,8,8s-3.582,8-8,8S240.092,92.418,240.092,88z"/>
<circle cx="176.092" cy="16" r="16"/>
<path d="M392.092,56c0,4.418,3.582,8,8,8s8-3.582,8-8v-8c0-4.418-3.582-8-8-8s-8,3.582-8,8V56z"/>
<path d="M400.092,0c-4.418,0-8,3.582-8,8v8c0,4.418,3.582,8,8,8s8-3.582,8-8V8C408.092,3.582,404.51,0,400.092,0z"/>
<path d="M424.092,24h-8c-4.418,0-8,3.582-8,8s3.582,8,8,8h8c4.418,0,8-3.582,8-8S428.51,24,424.092,24z"/>
<path d="M384.092,24h-8c-4.418,0-8,3.582-8,8s3.582,8,8,8h8c4.418,0,8-3.582,8-8S388.51,24,384.092,24z"/>
<path d="M344.092,144c4.418,0,8-3.582,8-8V95.832c0-4.418-3.582-8-8-8h-40.144c-4.418,0-8,3.582-8,8V136c0,4.418,3.582,8,8,8
	H344.092z M311.924,103.832h24.168V128h-24.144L311.924,103.832z"/>
<path d="M194.164,237.352c2.955,3.285,8.013,3.552,11.298,0.597c0.002-0.002,0.004-0.004,0.006-0.005l80-72
	c3.224-3.021,3.39-8.083,0.369-11.308c-2.937-3.135-7.825-3.391-11.073-0.58l-80,72C191.48,229.01,191.211,234.067,194.164,237.352
	L194.164,237.352z"/>
<path d="M440.092,200v-8c0-4.418-3.582-8-8-8s-8,3.582-8,8v8c0,4.418,3.582,8,8,8S440.092,204.418,440.092,200z"/>
<path d="M449.084,188.28l5.656,5.656c3.178,3.07,8.242,2.982,11.312-0.196c2.994-3.1,2.994-8.015,0-11.116l-5.656-5.656
	c-3.178-3.07-8.242-2.982-11.312,0.196C446.09,180.265,446.09,185.18,449.084,188.28z"/>
<path d="M472.092,152h-8c-4.418,0-8,3.582-8,8s3.582,8,8,8h8c4.418,0,8-3.582,8-8S476.51,152,472.092,152z"/>
<path d="M454.74,145.376c2.122,0,4.156-0.844,5.656-2.344l5.656-5.656c3.069-3.178,2.982-8.243-0.196-11.312
	c-3.1-2.994-8.015-2.994-11.116,0l-5.656,5.656c-3.124,3.125-3.123,8.19,0.002,11.314
	C450.586,144.533,452.619,145.376,454.74,145.376L454.74,145.376z"/>
<path d="M432.092,112c-4.418,0-8,3.582-8,8v8c0,4.418,3.582,8,8,8s8-3.582,8-8v-8C440.092,115.582,436.51,112,432.092,112z"/>
<path d="M409.484,126.064c-3.178-3.07-8.242-2.982-11.312,0.196c-2.994,3.1-2.994,8.015,0,11.116l5.656,5.656
	c3.178,3.07,8.242,2.982,11.312-0.196c2.994-3.1,2.994-8.015,0-11.116L409.484,126.064z"/>
<path d="M95.724,34.592c-0.943-2.896-3.449-5.005-6.464-5.44l-23.472-3.416L55.292,4.464c-2.334-3.963-7.439-5.284-11.402-2.95
	c-1.218,0.717-2.233,1.732-2.95,2.95L30.444,25.736l-23.48,3.416c-4.372,0.639-7.398,4.701-6.759,9.073
	c0.254,1.736,1.071,3.341,2.327,4.567l16.984,16.56l-4,23.384c-0.763,4.352,2.146,8.498,6.498,9.261
	c1.742,0.305,3.536,0.025,5.102-0.797l20.976-11.072l21,11.04c3.911,2.056,8.748,0.553,10.804-3.358
	c0.819-1.557,1.101-3.34,0.804-5.074l-4-23.384l16.992-16.56C95.875,40.668,96.663,37.489,95.724,34.592z M62.532,50.832
	c-1.884,1.835-2.745,4.479-2.304,7.072l1.984,11.56L51.836,64c-2.331-1.226-5.117-1.226-7.448,0l-10.4,5.456l1.992-11.56
	c0.442-2.587-0.413-5.227-2.288-7.064l-8.384-8.184l11.584-1.688c2.609-0.376,4.865-2.013,6.032-4.376l5.168-10.504l5.184,10.504
	c1.164,2.359,3.413,3.995,6.016,4.376l11.592,1.688L62.532,50.832z"/>
<path d="M453.06,401l-3.296-4.944c-18.489-27.632-47.55-46.422-80.336-51.944c-4.337-0.846-8.538,1.984-9.383,6.321
	c-0.846,4.337,1.984,8.538,6.321,9.383c0.143,0.028,0.286,0.052,0.43,0.072c23.646,4.013,45.195,16.027,61.04,34.032
	c-13.322,2.405-24.973,10.406-32,21.976c-8.616,15.433-3.089,34.928,12.344,43.544s34.928,3.089,43.544-12.344
	c3.276-6.358,5.044-13.385,5.168-20.536c2.33,3.417,4.119,7.173,5.304,11.136c2.917,10.202,1.638,21.146-3.552,30.4
	c-2.254,3.8-1.001,8.708,2.799,10.962c3.8,2.254,8.708,1.001,10.962-2.799c0.072-0.122,0.141-0.245,0.207-0.371
	c14.634-26.166,6.01-59.217-19.544-74.896L453.06,401z M437.772,439.288c-4.304,7.718-14.049,10.485-21.767,6.181
	c-3.709-2.068-6.444-5.527-7.601-9.613c-1.172-4.081-0.659-8.461,1.424-12.16c4.719-7.732,12.683-12.914,21.664-14.096
	c1.391-0.037,2.768,0.283,4,0.928C442.236,414.296,442.596,430.632,437.772,439.288z"/>
<g>
</g>
<g>
</g>
<g>
</g>
<g>
</g>
<g>
</g>
<g>
</g>
<g>
</g>
<g>
</g>
<g>
</g>
<g>
</g>
<g>
</g>
<g>
</g>
<g>
</g>
<g>
</g>
<g>
</g>
</svg>
