<svg id="Capa_1" enable-background="new 0 0 512 512" height="512" viewBox="0 0 512 512" width="512" xmlns="http://www.w3.org/2000/svg"><g id="XMLID_1929_"><path id="XMLID_1918_" d="m462 192.333v-49.833c0-28.995-23.505-52.5-52.5-52.5h-7.318v75.258c0 14.954 12.122 27.076 27.076 27.076h32.742z" fill="#ffa96b"/><path id="XMLID_2791_" d="m370 454h-296c-13.255 0-24 10.745-24 24 0 13.255 10.745 24 24 24h296c13.255 0 24-10.745 24-24 0-13.255-10.745-24-24-24z" fill="#a0c8ff"/><path id="XMLID_2322_" d="m318 10h-192c-22.091 0-40 17.909-40 40v404h272v-404c0-22.091-17.909-40-40-40z" fill="#fff"/><path id="XMLID_2321_" d="m130 58.083h184v72h-184z" fill="#a0c8ff"/><ellipse id="XMLID_1865_" cx="216.667" cy="299.096" fill="#cbe558" rx="71.117" ry="114.763"/><g id="XMLID_152_"><path id="XMLID_816_" d="m314 140.083c5.522 0 10-4.478 10-10v-72c0-5.522-4.478-10-10-10h-184c-5.522 0-10 4.478-10 10v72c0 5.522 4.478 10 10 10zm-174-72h164v52h-164z"/><path id="XMLID_822_" d="m409.5 80h-41.5v-30c0-27.57-22.43-50-50-50h-192c-27.57 0-50 22.43-50 50v137c0 5.522 4.478 10 10 10s10-4.478 10-10v-137c0-16.542 13.458-30 30-30h192c16.542 0 30 13.458 30 30v394h-121.333v-24.321c44.014-25.999 71.117-71.673 71.117-120.583 0-50.832-29.265-98.18-76.373-123.565-2.961-1.596-6.527-1.596-9.488 0-47.108 25.386-76.373 72.733-76.373 123.565 0 48.911 27.103 94.585 71.117 120.583v24.321h-110.667v-167c0-5.522-4.478-10-10-10s-10 4.478-10 10v167h-2c-18.748 0-34 15.252-34 34s15.252 34 34 34h296c18.748 0 34-15.252 34-34s-15.252-34-34-34h-2v-130.367h13.892c9.21 0 16.703 7.493 16.703 16.703v46.006c0 20.238 16.465 36.703 36.702 36.703 20.238 0 36.703-16.465 36.703-36.703v-233.842c0-34.463-28.037-62.5-62.5-62.5zm-253.95 219.096c0-41.747 23.283-80.854 61.117-103.277 37.834 22.424 61.117 61.53 61.117 103.277 0 37.931-19.225 73.679-51.117 96.718v-83.612l24.567-24.567c3.905-3.905 3.905-10.237 0-14.143-3.906-3.904-10.236-3.904-14.143 0l-10.425 10.425v-26.523c0-5.522-4.478-10-10-10s-10 4.478-10 10v62.17l-12.854-12.853c-3.906-3.904-10.236-3.904-14.143 0-3.905 3.905-3.905 10.237 0 14.143l26.996 26.995v47.966c-31.891-23.04-51.115-58.788-51.115-96.719zm228.45 178.904c0 7.72-6.28 14-14 14h-296c-7.72 0-14-6.28-14-14s6.28-14 14-14h12 284c7.72 0 14 6.28 14 14zm68-335.5v39.833h-22.742c-9.416 0-17.076-7.66-17.076-17.075v-65.165c22.189 1.39 39.818 19.874 39.818 42.407zm-16.703 250.545c-9.21 0-16.702-7.493-16.702-16.703v-46.006c0-20.238-16.465-36.703-36.703-36.703h-13.892v-193.633h24.182v65.258c0 20.443 16.632 37.075 37.076 37.075h22.742v174.009c0 9.21-7.493 16.703-16.703 16.703z"/><path id="XMLID_826_" d="m86 242c2.63 0 5.21-1.07 7.069-2.931 1.861-1.859 2.931-4.439 2.931-7.069s-1.07-5.21-2.931-7.07c-1.859-1.861-4.439-2.93-7.069-2.93s-5.21 1.069-7.07 2.93-2.93 4.44-2.93 7.07 1.069 5.21 2.93 7.069c1.86 1.861 4.44 2.931 7.07 2.931z"/></g></g></svg>