<svg id="Capa_1" enable-background="new 0 0 512 512" height="512" viewBox="0 0 512 512" width="512" xmlns="http://www.w3.org/2000/svg"><g><path d="m256 220.764c-100.514 0-184.715-27.113-206.719-63.526-.916 3.334-1.388 6.726-1.388 10.163 0 48.353 93.173 87.551 208.107 87.551s208.107-39.198 208.107-87.551c0-3.438-.472-6.829-1.388-10.163-22.004 36.413-106.205 63.526-206.719 63.526z" fill="#ecd5c6"/><path d="m256 298.152c-100.514 0-184.715-27.113-206.719-63.526-.916 3.334-1.388 6.726-1.388 10.163 0 48.353 93.173 87.551 208.107 87.551s208.107-39.198 208.107-87.551c0-3.438-.472-6.829-1.388-10.163-22.004 36.413-106.205 63.526-206.719 63.526z" fill="#ecd5c6"/><path d="m442.73 206.096c-33.954 28.946-104.815 48.857-186.73 48.857s-152.776-19.911-186.73-48.857c-10.299 8.78-17.203 18.391-19.989 28.53 22.004 36.413 106.205 63.526 206.719 63.526s184.715-27.113 206.719-63.526c-2.786-10.139-9.69-19.75-19.989-28.53z" fill="#d8aa8b"/><path d="m256 375.539c-100.514 0-184.715-27.113-206.719-63.526-.916 3.334-1.388 6.726-1.388 10.163 0 48.353 93.173 87.551 208.107 87.551s208.107-39.198 208.107-87.551c0-3.438-.472-6.829-1.388-10.163-22.004 36.414-106.205 63.526-206.719 63.526z" fill="#ecd5c6"/><path d="m442.73 283.483c-33.954 28.946-104.815 48.857-186.73 48.857s-152.776-19.911-186.73-48.857c-10.299 8.78-17.203 18.391-19.989 28.53 22.004 36.414 106.205 63.526 206.719 63.526s184.715-27.113 206.719-63.526c-2.786-10.139-9.69-19.75-19.989-28.53z" fill="#d8aa8b"/><path d="m291.961 128.708h-71.921c-1.344 0-2.434-1.09-2.434-2.434v-31.23h76.79v31.229c-.001 1.345-1.091 2.435-2.435 2.435z" fill="#ffd064"/><path d="m291.961 56.209h-71.921c-1.344 0-2.434 1.09-2.434 2.434v36.401h76.79v-36.401c-.001-1.344-1.091-2.434-2.435-2.434z" fill="#ffe07d"/><path d="m148.085 169.323c16.161 3.334 35.921-7.077 54.957-5.368 17.01 1.527 34.385 15.489 52.958 15.489s35.949-13.962 52.959-15.489c19.036-1.709 38.797 8.701 54.958 5.367 19.945-4.114 33.369-21.835 47.287-27.907 11.224-4.896 22.396-8.893 30.883-13.251-28.689-24.034-82.911-41.743-147.692-46.826v44.935c0 1.344-1.09 2.434-2.434 2.434h-71.921c-1.345 0-2.434-1.09-2.434-2.434v-44.935c-64.781 5.083-119.003 22.792-147.692 46.826 8.487 4.358 19.659 8.355 30.883 13.251 13.917 6.073 27.342 23.794 47.288 27.908z" fill="#c6865c"/><path d="m442.087 128.165c-8.487 4.358-19.659 8.355-30.883 13.251-13.918 6.072-27.341 23.793-47.287 27.907-16.161 3.334-35.922-7.077-54.958-5.367-17.01 1.527-34.386 15.489-52.959 15.489s-35.948-13.962-52.958-15.489c-19.036-1.709-38.796 8.702-54.957 5.368-19.946-4.114-33.371-21.836-47.289-27.908-11.224-4.896-22.395-8.893-30.883-13.251-10.655 8.926-17.788 18.725-20.632 29.074 22.004 36.412 106.205 63.525 206.719 63.525s184.715-27.113 206.719-63.526c-2.844-10.348-9.977-20.147-20.632-29.073z" fill="#d8aa8b"/><path d="m442.087 128.165c-12.052-10.096-28.61-19.077-48.563-26.474 3.063 2.101 5.922 4.26 8.563 6.474.107.089.213.179.319.268 9.815 8.294 13.199 20.932 10.466 32.262 10.656-4.572 21.148-8.388 29.215-12.53z" fill="#c17d4f"/><path d="m442.087 128.165c-8.067 4.142-18.559 7.958-29.216 12.53-1.812 7.511-6.311 14.447-13.406 19.162-36.821 24.468-105.197 40.907-183.465 40.907-56.464 0-107.78-8.556-145.815-22.51 36.212 25.351 105.851 42.51 185.815 42.51 100.514 0 184.715-27.113 206.719-63.526-2.844-10.348-9.977-20.147-20.632-29.073z" fill="#ce9875"/><path d="m461.852 309.247c.323.918.612 1.84.867 2.766.916 3.334 1.388 6.726 1.388 10.163 0 48.353-93.173 87.551-208.107 87.551s-208.107-39.197-208.107-87.55c0-3.438.471-6.829 1.388-10.163.255-.927.544-1.849.867-2.766-26.921 15.011-42.648 33.123-42.648 52.623 0 51.867 111.257 93.914 248.5 93.914s248.5-42.047 248.5-93.914c0-19.5-15.727-37.612-42.648-52.624z" fill="#dae4ea"/><path d="m461.852 309.247c.323.918.612 1.84.867 2.766.916 3.334 1.388 6.726 1.388 10.163 0 3.111-.386 6.184-1.138 9.212 1.011 3.442 1.531 6.939 1.531 10.483 0 51.867-111.257 93.914-248.5 93.914-69.065 0-131.548-10.648-176.585-27.837 42.626 28.556 123.647 47.837 216.585 47.837 137.243 0 248.5-42.047 248.5-93.914 0-19.5-15.727-37.612-42.648-52.624z" fill="#c6d0da"/><path d="m69.399 432.035c3.85 1.597 8.224-.253 9.801-4.055 1.587-3.826-.229-8.214-4.055-9.801-38.223-15.853-60.145-36.376-60.145-56.307 0-15.212 11.969-28.046 25.439-37.672 2.361 52.328 96.194 93.028 215.561 93.028s213.2-40.699 215.561-93.028c52.225 37.319 17.073 74.551-42.496 97.064-88.716 33.528-226.863 35.432-321.612 8.104-3.979-1.149-8.137 1.147-9.284 5.127-1.148 3.98 1.147 8.137 5.128 9.285 98.13 28.304 239.551 26.102 331.071-8.484 50.062-18.921 77.632-44.997 77.632-73.424 0-21.176-15.239-41.13-44.113-57.822-2.985-7.162-7.74-14.066-14.212-20.632 24.472-24.879 23.369-53.676 0-77.387 26.038-26.47 23.726-58.066-6.772-83.615-29.583-24.783-82.169-42.129-145.008-47.962v-15.81c0-5.478-4.457-9.934-9.935-9.934h-24.455c-4.143 0-7.5 3.358-7.5 7.5s3.357 7.5 7.5 7.5h19.39v23.835h-61.791v-23.836h7.401c4.143 0 7.5-3.358 7.5-7.5s-3.357-7.5-7.5-7.5h-12.467c-5.478 0-9.935 4.457-9.935 9.934v15.81c-62.839 5.833-115.425 23.179-145.008 47.962-13.979 11.71-24.703 26.901-24.703 44.986 0 13.83 6.376 26.882 17.931 38.629-23.366 23.709-24.494 52.487 0 77.387-6.471 6.566-11.227 13.47-14.212 20.632-28.871 16.692-44.111 36.646-44.111 57.823 0 26.684 24.646 51.602 69.399 70.163zm.257-138.74c81.984 62.066 290.716 62.057 372.689 0 5.797 5.733 9.859 11.629 12.129 17.607-10.838 15.145-34.746 29.038-67.903 39.368-75.588 23.551-184.788 23.789-261.141 0-33.157-10.33-57.065-24.223-67.903-39.368 2.27-5.977 6.332-11.874 12.129-17.607zm330.589 83.876c-79.478 33.437-209.014 33.436-288.49 0-29.636-12.468-48.814-28.342-54.553-44.711 14.485 12.583 36.083 23.507 63.766 32.132 78.061 24.32 190.058 24.926 270.064 0 27.683-8.625 49.28-19.549 63.766-32.132-5.738 16.369-24.917 32.244-54.553 44.711zm-330.589-161.263c81.984 62.066 290.716 62.057 372.689 0 5.797 5.733 9.859 11.629 12.129 17.607-10.838 15.145-34.746 29.038-67.903 39.368-75.588 23.551-184.788 23.789-261.141 0-33.157-10.33-57.065-24.223-67.903-39.368 2.27-5.978 6.332-11.874 12.129-17.607zm155.448-113.364h61.791v18.664h-61.791zm-15 23.729c0 5.478 4.457 9.934 9.935 9.934h71.922c5.478 0 9.935-4.457 9.935-9.934v-36.75c51.898 5.006 97.276 18.478 125.485 37.071-6.136 2.556-12.479 5.026-19.176 7.948-15.211 6.637-27.96 23.755-45.804 27.436-13.866 2.856-33.927-7.307-54.113-5.492-18.54 1.665-35.74 15.458-52.288 15.458-16.562 0-33.732-13.793-52.287-15.458-20.21-1.816-40.236 8.354-54.113 5.492-17.858-3.684-30.587-20.798-45.805-27.437-6.709-2.926-13.141-5.434-19.176-7.947 28.21-18.593 73.587-32.066 125.485-37.071zm200.202 68.811c-1.451-3.879-5.774-5.847-9.652-4.398-77.814 29.096-196.343 29.384-275.224 4.809-33.157-10.33-57.065-24.223-67.903-39.369 2.459-6.478 7.021-12.857 13.614-19.037 7.774 3.575 17.693 7.289 26.656 11.2 12.599 5.496 26.749 23.835 48.772 28.378 18.274 3.772 38.169-6.83 55.802-5.243 15.428 1.385 33.071 15.519 53.629 15.519 20.594 0 38.174-14.131 53.63-15.519 17.576-1.587 37.542 9.008 55.803 5.242 21.994-4.537 36.183-22.886 48.771-28.377 8.777-3.83 18.931-7.647 26.656-11.2 6.593 6.179 11.154 12.558 13.614 19.037-4.87 6.803-12.411 13.385-22.47 19.604-3.522 2.178-4.613 6.8-2.435 10.323s6.801 4.612 10.323 2.436c5.608-3.468 10.588-7.089 14.92-10.847-5.721 16.384-24.906 32.274-54.566 44.753-79.478 33.437-209.014 33.436-288.49 0-29.724-12.505-48.928-28.437-54.603-44.857 35.35 30.553 111.998 50.726 198.847 50.726 56.093 0 109.331-8.355 149.907-23.528 3.88-1.45 5.849-5.772 4.399-9.652zm-154.306 110.568c86.849 0 163.497-20.173 198.848-50.725-5.675 16.42-24.879 32.352-54.603 44.856-79.478 33.437-209.014 33.436-288.49 0-29.724-12.505-48.928-28.436-54.603-44.856 35.351 30.552 111.999 50.725 198.848 50.725z"/></g></svg>