<svg height="512" viewBox="0 0 512 512" width="512" xmlns="http://www.w3.org/2000/svg"><g id="filled_outline" data-name="filled outline"><path d="m104 177.373v-73.373h-48v73.373a54.626 54.626 0 0 1 -16 38.627 54.626 54.626 0 0 0 -16 38.627v137.373h112v-137.373a54.626 54.626 0 0 0 -16-38.627 54.626 54.626 0 0 1 -16-38.627z" fill="#05816e"/><path d="m104 160-24 24-24-24v-56h48z" fill="#d78e0c"/><path d="m64 72h32v32h-32z" fill="#a3612d"/><path d="m64 88h32v16h-32z" fill="#974712"/><path d="m212 216h40a12 12 0 0 1 12 12v164a0 0 0 0 1 0 0h-64a0 0 0 0 1 0 0v-164a12 12 0 0 1 12-12z" fill="#dcdbd6"/><path d="m24 392h464v48h-464z" fill="#915628"/><g fill="#a3612d"><path d="m24 392h464v24h-464z"/><path d="m338.828 360.652-82.828 1v-50.652a46 46 0 0 1 46-46h113.536v35.826l-32.664 39.2a57.334 57.334 0 0 1 -44.044 20.626z"/><path d="m412.45 265h-22.25l-24.52 24.51-18.6-18.6 4.32-4.31a7.763 7.763 0 0 0 1.23-1.6h-33.72a7.763 7.763 0 0 0 1.23 1.6l4.31 4.31-18.59 18.6-21.15-21.14a45.767 45.767 0 0 0 -13.85 8.77l23.68 23.69-38.54 38.53v19.32a8 8 0 0 0 5.66-2.34l44.2-44.2 18.59 18.6-24.25 24.26a7.967 7.967 0 0 0 -2.35 5.65h19.32l18.6-18.6 16.89 16.9a57.182 57.182 0 0 0 15.97-6.66l-21.55-21.55 18.6-18.6 22.05 22.05 10.29-12.34-21.02-21.02 34.22-34.23a7.763 7.763 0 0 0 1.23-1.6zm-76.68 54.43-18.6-18.6 18.6-18.6 18.6 18.6z"/></g><path d="m412.45 265h-22.25l-24.52 24.51-18.6-18.6 4.32-4.31a7.763 7.763 0 0 0 1.23-1.6h-33.72a7.763 7.763 0 0 0 1.23 1.6l4.31 4.31-18.59 18.6-21.15-21.14a45.767 45.767 0 0 0 -13.85 8.77l23.68 23.69-38.54 38.53v19.32a8 8 0 0 0 5.66-2.34l44.2-44.2 18.59 18.6-24.25 24.26a7.967 7.967 0 0 0 -2.35 5.65h19.32l18.6-18.6 16.89 16.9a57.182 57.182 0 0 0 15.97-6.66l-21.55-21.55 18.6-18.6 22.05 22.05 10.29-12.34-21.02-21.02 34.22-34.23a7.763 7.763 0 0 0 1.23-1.6zm-76.68 54.43-18.6-18.6 18.6-18.6 18.6 18.6z" fill="#915628"/><path d="m465.391 280.884a19.942 19.942 0 1 0 0-39.884c-11.013 0-19.942 8.929-19.942 24h-29.913v32h29.913c0 14.84 8.929 23.768 19.942 23.768a19.942 19.942 0 1 0 0-39.884z" fill="#eae9e4"/><path d="m136 360h-70a10 10 0 0 1 -10-10v-92a10 10 0 0 1 10-10h70z" fill="#d78e0c"/><circle cx="424" cy="352" fill="#768753" r="16"/><path d="m455.6 376a20 20 0 0 1 -19.6 16h-184a20 20 0 0 1 -19.6-16z" fill="#b59b68"/><path d="m231.182 120-8 48-16-16-6.611 13.221a33.975 33.975 0 0 0 3.208 35.576l11.4 15.2h32l10.024-13.365a33.973 33.973 0 0 0 1.63-38.388z" fill="#eeb436"/><path d="m231.182 224a8 8 0 0 1 -8-8v-24a8 8 0 0 1 16 0v24a8 8 0 0 1 -8 8z" fill="#d78e0c"/><path d="m216 272a16 16 0 0 1 -16-16v-28a12 12 0 0 1 12-12h40a12 12 0 0 1 12 12v10a10 10 0 0 1 -10 10h-22v8a16 16 0 0 1 -16 16z" fill="#eae9e4"/><path d="m120 336h-24a8 8 0 0 1 0-16h24a8 8 0 0 1 0 16z" fill="#eeb436"/><path d="m56 320h16a8 8 0 0 1 0 16h-16z" fill="#eeb436"/><path d="m168 284v-52h-64v52a28 28 0 0 0 16 25.3v58.7l-16 24h64l-16-24v-58.7a28 28 0 0 0 16-25.3z" fill="#b22122"/><path d="m104 184h64v48h-64z" fill="#eae9e4"/><circle cx="388" cy="348" fill="#b22122" r="20"/><path d="m232 360h224a0 0 0 0 1 0 0v12a20 20 0 0 1 -20 20h-184a20 20 0 0 1 -20-20v-12a0 0 0 0 1 0 0z" fill="#b59b68"/><path d="m455.6 376a20 20 0 0 1 -19.6 16h-184a20 20 0 0 1 -19.6-16z" fill="#aa9661"/><path d="m488 384h-26.707a27.838 27.838 0 0 0 2.707-12v-12a8 8 0 0 0 -8-8h-8a23.982 23.982 0 0 0 -37.106-20.09 28.206 28.206 0 0 0 -5.8-6.061l16.585-19.9a8.073 8.073 0 0 0 .671-.947h15.882c2.881 14.155 13.421 23.769 27.156 23.769a27.93 27.93 0 0 0 19.554-47.885 27.929 27.929 0 0 0 -19.551-47.886c-13.753 0-24.3 9.712-27.168 24h-136.223a53.688 53.688 0 0 0 -30 9.125v-38.125a20.014 20.014 0 0 0 -10.59-17.638l2.195-2.927a42.23 42.23 0 0 0 2.015-47.428l-27.654-44.247a8 8 0 0 0 -14.675 2.925l-5.445 32.666-5.008-5.008a8 8 0 0 0 -12.812 2.079l-6.61 13.221a41.743 41.743 0 0 0 3.963 43.954l4.079 5.438a19.987 19.987 0 0 0 -9.458 16.965v156h-19.719l-12.281-18.422v-51.649a36.21 36.21 0 0 0 16-29.929v-100a8 8 0 0 0 -8-8h-56v-72a8 8 0 0 0 -8-8v-24a8 8 0 0 0 -8-8h-32a8 8 0 0 0 -8 8v24a8 8 0 0 0 -8 8v73.373a46.326 46.326 0 0 1 -13.657 32.971 62.214 62.214 0 0 0 -18.343 44.283v185.373a8 8 0 0 0 8 8h464a8 8 0 0 0 8-8v-48a8 8 0 0 0 -8-8zm-64.464-111h21.913a8 8 0 0 0 8-8c0-9.72 4.688-16 11.942-16a11.942 11.942 0 1 1 0 23.884 8 8 0 0 0 0 16 11.943 11.943 0 0 1 0 23.885c-7.254 0-11.942-6.19-11.942-15.769a8 8 0 0 0 -8-8h-21.913zm.464 71a8.009 8.009 0 0 1 8 8h-16a8.009 8.009 0 0 1 8-8zm-16.464-71v24.93l-15.2 18.238-15.336-15.342 27.821-27.826zm-19.536 63a11.977 11.977 0 0 1 11.3 16h-22.619a12.013 12.013 0 0 1 11.319-16zm-27.7 7.953-13.214-13.214 18.6-18.6 10.49 10.49a28.071 28.071 0 0 0 -15.876 21.324zm21.893-70.953-16.512 16.512-16.512-16.512zm-27.826 27.826-18.6 18.6-18.6-18.6 18.6-18.6zm-8.652 51.174h-19.894l9.947-9.947zm-21.261-21.261-21.042 21.042c-.071.071-.131.147-.2.219h-37.212l39.859-39.86zm-22.454-57.739h20.367l-16.512 16.512-14.877-14.876a37.874 37.874 0 0 1 11.022-1.636zm-38 38a37.906 37.906 0 0 1 12.536-28.179l18 18-30.536 30.547zm184 57v4a12.013 12.013 0 0 1 -12 12h-184a12.013 12.013 0 0 1 -12-12v-4zm-221.293 16h-18.707v-105.376a23.992 23.992 0 0 0 32-22.624h14a18.1 18.1 0 0 0 2-.118v26.871a53.673 53.673 0 0 0 -8 28.247v41h-16a8 8 0 0 0 -8 8v12a27.838 27.838 0 0 0 2.707 12zm29.293-146a2 2 0 0 1 -2 2h-22a8 8 0 0 0 -8 8v8a8 8 0 0 1 -16 0v-28a4 4 0 0 1 4-4h40a4 4 0 0 1 4 4zm-48.273-69.2 1.646-3.294 8.152 8.152a8 8 0 0 0 13.548-4.342l4.526-27.154 16.453 26.326a26.132 26.132 0 0 1 -1.246 29.348l-7.624 10.164h-4v-16a8 8 0 0 0 -16 0v16h-4l-9-12a25.829 25.829 0 0 1 -2.455-27.2zm-95.727 23.2h48v32h-48zm0 48h48v44a20.11 20.11 0 0 1 -11.433 18.076 8 8 0 0 0 -4.567 7.224v58.7a8 8 0 0 0 1.344 4.438l7.708 11.562h-34.1l7.708-11.562a8 8 0 0 0 1.34-4.438v-58.7a8 8 0 0 0 -4.567-7.226 20.11 20.11 0 0 1 -11.433-18.074zm0 73.929v6.071h-16a8 8 0 0 0 0 16h16v16h-46a2 2 0 0 1 -2-2v-14h8a8 8 0 0 0 0-16h-8v-62a2 2 0 0 1 2-2h30v28a36.21 36.21 0 0 0 16 29.929zm-40-233.929h16v16h-16zm-8 32h32v44.687l-16 16-16-16zm-32 142.627a46.326 46.326 0 0 1 13.657-32.971 62.179 62.179 0 0 0 18.3-42.388l10.389 10.389a8 8 0 0 0 11.314 0l10.37-10.373c.03.99.09 1.98.167 2.968a8.052 8.052 0 0 0 -.197 1.748v56h-30a18.021 18.021 0 0 0 -18 18v92a18.021 18.021 0 0 0 18 18h44.385l-10.666 16h-67.719zm448 177.373h-448v-32h448z"/></g></svg>